<?xml version="1.0" encoding="UTF-8" standalone="no"?>
<!DOCTYPE svg PUBLIC "-//W3C//DTD SVG 1.1//EN"
 "http://www.w3.org/Graphics/SVG/1.1/DTD/svg11.dtd">
<!-- Generated by graphviz version 14.0.2 (20251019.1705)
 -->
<!-- Title: packages Pages: 1 -->
<svg width="2298pt" height="548pt"
 viewBox="0.00 0.00 2298.00 548.00" xmlns="http://www.w3.org/2000/svg" xmlns:xlink="http://www.w3.org/1999/xlink">
<g id="graph0" class="graph" transform="scale(1 1) rotate(0) translate(4 544)">
<title>packages</title>
<polygon fill="white" stroke="none" points="-4,4 -4,-544 2293.73,-544 2293.73,4 -4,4"/>
<!-- app -->
<g id="node1" class="node">
<title>app</title>
<polygon fill="#77aadd" stroke="#77aadd" points="390.48,-36 336.48,-36 336.48,0 390.48,0 390.48,-36"/>
<text xml:space="preserve" text-anchor="start" x="353.73" y="-12.95" font-family="Times,serif" font-size="14.00">app</text>
</g>
<!-- app.api -->
<g id="node2" class="node">
<title>app.api</title>
<polygon fill="#99ddff" stroke="#99ddff" points="464.35,-36 408.6,-36 408.6,0 464.35,0 464.35,-36"/>
<text xml:space="preserve" text-anchor="start" x="416.6" y="-12.95" font-family="Times,serif" font-size="14.00">app.api</text>
</g>
<!-- app.api.dependencies -->
<g id="node3" class="node">
<title>app.api.dependencies</title>
<polygon fill="#99ddff" stroke="#99ddff" points="614.6,-36 482.35,-36 482.35,0 614.6,0 614.6,-36"/>
<text xml:space="preserve" text-anchor="start" x="490.35" y="-12.95" font-family="Times,serif" font-size="14.00">app.api.dependencies</text>
</g>
<!-- app.api.dependencies.deps -->
<g id="node4" class="node">
<title>app.api.dependencies.deps</title>
<polygon fill="#99ddff" stroke="#99ddff" points="1120.85,-108 960.1,-108 960.1,-72 1120.85,-72 1120.85,-108"/>
<text xml:space="preserve" text-anchor="start" x="968.1" y="-84.95" font-family="Times,serif" font-size="14.00">app.api.dependencies.deps</text>
</g>
<!-- app.db.session -->
<g id="node20" class="node">
<title>app.db.session</title>
<polygon fill="#bbcc33" stroke="#bbcc33" points="307.23,-396 211.73,-396 211.73,-360 307.23,-360 307.23,-396"/>
<text xml:space="preserve" text-anchor="start" x="219.73" y="-372.95" font-family="Times,serif" font-size="14.00">app.db.session</text>
</g>
<!-- app.api.dependencies.deps&#45;&gt;app.db.session -->
<g id="edge1" class="edge">
<title>app.api.dependencies.deps&#45;&gt;app.db.session</title>
<path fill="none" stroke="black" d="M961.15,-108.49C919.85,-118.07 868.68,-130.69 823.48,-144 776.56,-157.82 766.29,-165.82 719.48,-180 658.82,-198.38 640.81,-193.71 581.48,-216 475.34,-255.88 357.94,-320.08 298.53,-354.11"/>
<polygon fill="black" stroke="black" points="290.22,-358.9 296.64,-350.01 293.5,-357.01 298.89,-353.91 298.89,-353.91 298.89,-353.91 293.5,-357.01 301.13,-357.81 290.22,-358.9"/>
</g>
<!-- app.models.user -->
<g id="node27" class="node">
<title>app.models.user</title>
<polygon fill="#aaaa00" stroke="#aaaa00" points="1795.1,-468 1689.85,-468 1689.85,-432 1795.1,-432 1795.1,-468"/>
<text xml:space="preserve" text-anchor="start" x="1697.85" y="-444.95" font-family="Times,serif" font-size="14.00">app.models.user</text>
</g>
<!-- app.api.dependencies.deps&#45;&gt;app.models.user -->
<g id="edge2" class="edge">
<title>app.api.dependencies.deps&#45;&gt;app.models.user</title>
<path fill="none" stroke="black" d="M1121.32,-104.01C1283.87,-131.73 1642.05,-201.25 1727.48,-288 1762.27,-323.33 1761.43,-346.77 1755.48,-396 1754.49,-404.18 1752.67,-412.93 1750.7,-420.9"/>
<polygon fill="black" stroke="black" points="1748.2,-430.35 1746.41,-419.53 1749.17,-426.7 1750.76,-420.68 1750.76,-420.68 1750.76,-420.68 1749.17,-426.7 1755.11,-421.84 1748.2,-430.35"/>
</g>
<!-- app.services -->
<g id="node28" class="node">
<title>app.services</title>
<polygon fill="#eedd88" stroke="#eedd88" points="1081.85,-180 999.1,-180 999.1,-144 1081.85,-144 1081.85,-180"/>
<text xml:space="preserve" text-anchor="start" x="1007.1" y="-156.95" font-family="Times,serif" font-size="14.00">app.services</text>
</g>
<!-- app.api.dependencies.deps&#45;&gt;app.services -->
<g id="edge3" class="edge">
<title>app.api.dependencies.deps&#45;&gt;app.services</title>
<path fill="none" stroke="black" d="M1040.48,-108.3C1040.48,-115.68 1040.48,-124.48 1040.48,-132.75"/>
<polygon fill="black" stroke="black" points="1040.48,-142.68 1035.98,-132.68 1040.48,-138.9 1040.48,-132.68 1040.48,-132.68 1040.48,-132.68 1040.48,-138.9 1044.98,-132.68 1040.48,-142.68"/>
</g>
<!-- app.api.routes -->
<g id="node5" class="node">
<title>app.api.routes</title>
<polygon fill="#99ddff" stroke="#99ddff" points="629.73,-396 537.23,-396 537.23,-360 629.73,-360 629.73,-396"/>
<text xml:space="preserve" text-anchor="start" x="545.23" y="-372.95" font-family="Times,serif" font-size="14.00">app.api.routes</text>
</g>
<!-- app.api.routes.ai -->
<g id="node6" class="node">
<title>app.api.routes.ai</title>
<polygon fill="#99ddff" stroke="#99ddff" points="2057.48,-36 1951.48,-36 1951.48,0 2057.48,0 2057.48,-36"/>
<text xml:space="preserve" text-anchor="start" x="1959.48" y="-12.95" font-family="Times,serif" font-size="14.00">app.api.routes.ai</text>
</g>
<!-- app.api.routes.appointments -->
<g id="node7" class="node">
<title>app.api.routes.appointments</title>
<polygon fill="#99ddff" stroke="#99ddff" points="1288.35,-36 1118.6,-36 1118.6,0 1288.35,0 1288.35,-36"/>
<text xml:space="preserve" text-anchor="start" x="1126.6" y="-12.95" font-family="Times,serif" font-size="14.00">app.api.routes.appointments</text>
</g>
<!-- app.api.routes.appointments&#45;&gt;app.api.dependencies.deps -->
<g id="edge4" class="edge">
<title>app.api.routes.appointments&#45;&gt;app.api.dependencies.deps</title>
<path fill="none" stroke="black" d="M1162.77,-36.48C1141.1,-45.79 1114.24,-57.32 1091.23,-67.21"/>
<polygon fill="black" stroke="black" points="1082.07,-71.14 1089.49,-63.06 1085.55,-69.65 1091.26,-67.19 1091.26,-67.19 1091.26,-67.19 1085.55,-69.65 1093.04,-71.33 1082.07,-71.14"/>
</g>
<!-- app.api.routes.appointments&#45;&gt;app.models.user -->
<g id="edge5" class="edge">
<title>app.api.routes.appointments&#45;&gt;app.models.user</title>
<path fill="none" stroke="black" d="M1288.74,-34.7C1291.69,-35.15 1294.61,-35.59 1297.48,-36 1447.9,-57.54 1493.94,-22.13 1637.48,-72 1694.08,-91.67 1703.06,-108.69 1751.48,-144 1791.75,-173.38 1812.15,-173.06 1837.48,-216 1878.24,-285.11 1894.04,-327.98 1851.48,-396 1840.98,-412.78 1823.47,-424.39 1805.53,-432.35"/>
<polygon fill="black" stroke="black" points="1796.69,-435.96 1804.25,-428.02 1800.19,-434.53 1805.95,-432.18 1805.95,-432.18 1805.95,-432.18 1800.19,-434.53 1807.65,-436.35 1796.69,-435.96"/>
</g>
<!-- app.api.routes.appointments&#45;&gt;app.services -->
<g id="edge6" class="edge">
<title>app.api.routes.appointments&#45;&gt;app.services</title>
<path fill="none" stroke="black" d="M1118.38,-35.6C1046.31,-49.86 954.21,-68.63 951.48,-72 941.4,-84.42 943.57,-94.09 951.48,-108 959.93,-122.88 974.4,-134.02 989.24,-142.14"/>
<polygon fill="black" stroke="black" points="997.9,-146.51 986.94,-146.02 994.52,-144.81 988.97,-142.01 988.97,-142.01 988.97,-142.01 994.52,-144.81 991,-137.99 997.9,-146.51"/>
</g>
<!-- app.api.routes.auth -->
<g id="node8" class="node">
<title>app.api.routes.auth</title>
<polygon fill="#99ddff" stroke="#99ddff" points="934.23,-36 814.73,-36 814.73,0 934.23,0 934.23,-36"/>
<text xml:space="preserve" text-anchor="start" x="822.73" y="-12.95" font-family="Times,serif" font-size="14.00">app.api.routes.auth</text>
</g>
<!-- app.api.routes.auth&#45;&gt;app.api.dependencies.deps -->
<g id="edge7" class="edge">
<title>app.api.routes.auth&#45;&gt;app.api.dependencies.deps</title>
<path fill="none" stroke="black" d="M915.94,-36.48C938.11,-45.83 965.6,-57.43 989.11,-67.34"/>
<polygon fill="black" stroke="black" points="998.14,-71.14 987.17,-71.41 994.65,-69.68 988.92,-67.26 988.92,-67.26 988.92,-67.26 994.65,-69.68 990.67,-63.11 998.14,-71.14"/>
</g>
<!-- app.services.auth_service -->
<g id="node30" class="node">
<title>app.services.auth_service</title>
<polygon fill="#eedd88" stroke="#eedd88" points="763.85,-324 609.1,-324 609.1,-288 763.85,-288 763.85,-324"/>
<text xml:space="preserve" text-anchor="start" x="617.1" y="-300.95" font-family="Times,serif" font-size="14.00">app.services.auth_service</text>
</g>
<!-- app.api.routes.auth&#45;&gt;app.services.auth_service -->
<g id="edge8" class="edge">
<title>app.api.routes.auth&#45;&gt;app.services.auth_service</title>
<path fill="none" stroke="black" d="M814.37,-36.3C718.73,-64.42 540.84,-119.39 523.48,-144 483.79,-200.27 572.31,-254.06 633.8,-282.99"/>
<polygon fill="black" stroke="black" points="642.68,-287.08 631.72,-286.99 639.25,-285.5 633.6,-282.9 633.6,-282.9 633.6,-282.9 639.25,-285.5 635.48,-278.81 642.68,-287.08"/>
</g>
<!-- app.api.routes.dashboard -->
<g id="node9" class="node">
<title>app.api.routes.dashboard</title>
<polygon fill="#99ddff" stroke="#99ddff" points="1775.35,-36 1623.6,-36 1623.6,0 1775.35,0 1775.35,-36"/>
<text xml:space="preserve" text-anchor="start" x="1631.6" y="-12.95" font-family="Times,serif" font-size="14.00">app.api.routes.dashboard</text>
</g>
<!-- app.api.routes.dashboard&#45;&gt;app.api.dependencies.deps -->
<g id="edge9" class="edge">
<title>app.api.routes.dashboard&#45;&gt;app.api.dependencies.deps</title>
<path fill="none" stroke="black" d="M1623.24,-27.1C1501.31,-40.05 1262.87,-65.38 1131.95,-79.28"/>
<polygon fill="black" stroke="black" points="1122.38,-80.3 1131.84,-74.77 1126.14,-79.9 1132.32,-79.24 1132.32,-79.24 1132.32,-79.24 1126.14,-79.9 1132.79,-83.72 1122.38,-80.3"/>
</g>
<!-- app.api.routes.dashboard&#45;&gt;app.db.session -->
<g id="edge10" class="edge">
<title>app.api.routes.dashboard&#45;&gt;app.db.session</title>
<path fill="none" stroke="black" d="M1623.32,-29.38C1492.81,-47.85 1218.44,-89.63 990.48,-144 882.98,-169.64 858.08,-183.43 752.48,-216 650.53,-247.45 624.92,-254.96 523.48,-288 452.55,-311.1 371.27,-338.67 317.85,-356.94"/>
<polygon fill="black" stroke="black" points="308.71,-360.07 316.71,-352.57 312.28,-358.84 318.17,-356.83 318.17,-356.83 318.17,-356.83 312.28,-358.84 319.62,-361.09 308.71,-360.07"/>
</g>
<!-- app.api.routes.dashboard&#45;&gt;app.models.user -->
<g id="edge11" class="edge">
<title>app.api.routes.dashboard&#45;&gt;app.models.user</title>
<path fill="none" stroke="black" d="M1775.61,-34.75C1839.69,-48.31 1921.82,-66.54 1927.48,-72 1956.95,-100.46 1951.48,-120.03 1951.48,-161 1951.48,-161 1951.48,-161 1951.48,-307 1951.48,-347.97 1956.22,-366.81 1927.48,-396 1895.88,-428.1 1846.25,-441.09 1806.35,-446.19"/>
<polygon fill="black" stroke="black" points="1796.58,-447.3 1806.02,-441.7 1800.34,-446.87 1806.52,-446.17 1806.52,-446.17 1806.52,-446.17 1800.34,-446.87 1807.03,-450.64 1796.58,-447.3"/>
</g>
<!-- app.services.dashboard_service -->
<g id="node32" class="node">
<title>app.services.dashboard_service</title>
<polygon fill="#eedd88" stroke="#eedd88" points="1618.98,-396 1431.98,-396 1431.98,-360 1618.98,-360 1618.98,-396"/>
<text xml:space="preserve" text-anchor="start" x="1439.98" y="-372.95" font-family="Times,serif" font-size="14.00">app.services.dashboard_service</text>
</g>
<!-- app.api.routes.dashboard&#45;&gt;app.services.dashboard_service -->
<g id="edge12" class="edge">
<title>app.api.routes.dashboard&#45;&gt;app.services.dashboard_service</title>
<path fill="none" stroke="black" d="M1706.83,-36.41C1713.46,-54.61 1721.09,-83.83 1713.48,-108 1681.33,-210.11 1595.1,-307.24 1551.49,-351.69"/>
<polygon fill="black" stroke="black" points="1544.48,-358.75 1548.33,-348.49 1547.14,-356.07 1551.53,-351.66 1551.53,-351.66 1551.53,-351.66 1547.14,-356.07 1554.72,-354.83 1544.48,-358.75"/>
</g>
<!-- app.api.routes.notifications -->
<g id="node10" class="node">
<title>app.api.routes.notifications</title>
<polygon fill="#99ddff" stroke="#99ddff" points="796.35,-36 632.6,-36 632.6,0 796.35,0 796.35,-36"/>
<text xml:space="preserve" text-anchor="start" x="640.6" y="-12.95" font-family="Times,serif" font-size="14.00">app.api.routes.notifications</text>
</g>
<!-- app.api.routes.notifications&#45;&gt;app.api.dependencies.deps -->
<g id="edge13" class="edge">
<title>app.api.routes.notifications&#45;&gt;app.api.dependencies.deps</title>
<path fill="none" stroke="black" d="M795.9,-36.48C842.45,-46.48 900.96,-59.04 949.08,-69.37"/>
<polygon fill="black" stroke="black" points="958.62,-71.42 947.9,-73.72 954.92,-70.63 948.84,-69.32 948.84,-69.32 948.84,-69.32 954.92,-70.63 949.79,-64.92 958.62,-71.42"/>
</g>
<!-- app.services.email_service -->
<g id="node33" class="node">
<title>app.services.email_service</title>
<polygon fill="#eedd88" stroke="#eedd88" points="193.6,-396 31.35,-396 31.35,-360 193.6,-360 193.6,-396"/>
<text xml:space="preserve" text-anchor="start" x="39.35" y="-372.95" font-family="Times,serif" font-size="14.00">app.services.email_service</text>
</g>
<!-- app.api.routes.notifications&#45;&gt;app.services.email_service -->
<g id="edge14" class="edge">
<title>app.api.routes.notifications&#45;&gt;app.services.email_service</title>
<path fill="none" stroke="black" d="M632.22,-34.36C445.07,-69.44 3.48,-153.06 3.48,-161 3.48,-161 3.48,-161 3.48,-235 3.48,-284.71 46.04,-327.74 77.97,-353.03"/>
<polygon fill="black" stroke="black" points="85.68,-358.94 75.01,-356.43 82.68,-356.64 77.74,-352.86 77.74,-352.86 77.74,-352.86 82.68,-356.64 80.48,-349.29 85.68,-358.94"/>
</g>
<!-- app.services.notification_service -->
<g id="node34" class="node">
<title>app.services.notification_service</title>
<polygon fill="#eedd88" stroke="#eedd88" points="1089.35,-324 895.6,-324 895.6,-288 1089.35,-288 1089.35,-324"/>
<text xml:space="preserve" text-anchor="start" x="903.6" y="-300.95" font-family="Times,serif" font-size="14.00">app.services.notification_service</text>
</g>
<!-- app.api.routes.notifications&#45;&gt;app.services.notification_service -->
<g id="edge15" class="edge">
<title>app.api.routes.notifications&#45;&gt;app.services.notification_service</title>
<path fill="none" stroke="black" d="M719.81,-36.34C733.83,-79.11 775.72,-190.62 848.48,-252 864.78,-265.75 884.96,-276.08 905.01,-283.79"/>
<polygon fill="black" stroke="black" points="914.31,-287.17 903.38,-287.99 910.76,-285.88 904.92,-283.76 904.92,-283.76 904.92,-283.76 910.76,-285.88 906.45,-279.53 914.31,-287.17"/>
</g>
<!-- app.api.routes.payments -->
<g id="node11" class="node">
<title>app.api.routes.payments</title>
<polygon fill="#99ddff" stroke="#99ddff" points="1100.85,-36 952.1,-36 952.1,0 1100.85,0 1100.85,-36"/>
<text xml:space="preserve" text-anchor="start" x="960.1" y="-12.95" font-family="Times,serif" font-size="14.00">app.api.routes.payments</text>
</g>
<!-- app.api.routes.payments&#45;&gt;app.api.dependencies.deps -->
<g id="edge16" class="edge">
<title>app.api.routes.payments&#45;&gt;app.api.dependencies.deps</title>
<path fill="none" stroke="black" d="M1029.94,-36.3C1031.43,-43.76 1033.21,-52.68 1034.89,-61.03"/>
<polygon fill="black" stroke="black" points="1036.82,-70.7 1030.44,-61.78 1036.08,-66.99 1034.86,-60.9 1034.86,-60.9 1034.86,-60.9 1036.08,-66.99 1039.27,-60.01 1036.82,-70.7"/>
</g>
<!-- app.api.routes.payments&#45;&gt;app.models.user -->
<g id="edge17" class="edge">
<title>app.api.routes.payments&#45;&gt;app.models.user</title>
<path fill="none" stroke="black" d="M1100.92,-35.63C1219.75,-63.72 1458.01,-126.38 1645.48,-216 1697.86,-241.04 1721.24,-240.39 1754.48,-288 1782.29,-327.84 1783.52,-348.92 1771.48,-396 1769.18,-405 1764.99,-414.12 1760.51,-422.2"/>
<polygon fill="black" stroke="black" points="1755.41,-430.74 1756.67,-419.85 1757.35,-427.49 1760.54,-422.15 1760.54,-422.15 1760.54,-422.15 1757.35,-427.49 1764.4,-424.46 1755.41,-430.74"/>
</g>
<!-- app.services.payment_service -->
<g id="node35" class="node">
<title>app.services.payment_service</title>
<polygon fill="#eedd88" stroke="#eedd88" points="710.85,-180 532.1,-180 532.1,-144 710.85,-144 710.85,-180"/>
<text xml:space="preserve" text-anchor="start" x="540.1" y="-156.95" font-family="Times,serif" font-size="14.00">app.services.payment_service</text>
</g>
<!-- app.api.routes.payments&#45;&gt;app.services.payment_service -->
<g id="edge18" class="edge">
<title>app.api.routes.payments&#45;&gt;app.services.payment_service</title>
<path fill="none" stroke="black" d="M980.31,-36.33C931.36,-54.6 851.7,-83.99 782.48,-108 751.03,-118.91 715.94,-130.52 686.57,-140.09"/>
<polygon fill="black" stroke="black" points="677.18,-143.14 685.3,-135.77 680.78,-141.97 686.69,-140.05 686.69,-140.05 686.69,-140.05 680.78,-141.97 688.08,-144.33 677.18,-143.14"/>
</g>
<!-- app.api.routes.services -->
<g id="node12" class="node">
<title>app.api.routes.services</title>
<polygon fill="#99ddff" stroke="#99ddff" points="1933.35,-36 1793.6,-36 1793.6,0 1933.35,0 1933.35,-36"/>
<text xml:space="preserve" text-anchor="start" x="1801.6" y="-12.95" font-family="Times,serif" font-size="14.00">app.api.routes.services</text>
</g>
<!-- app.api.routes.services&#45;&gt;app.api.dependencies.deps -->
<g id="edge19" class="edge">
<title>app.api.routes.services&#45;&gt;app.api.dependencies.deps</title>
<path fill="none" stroke="black" d="M1793.36,-34.62C1790.36,-35.12 1787.39,-35.58 1784.48,-36 1551.07,-69.26 1273.34,-82.02 1132.39,-86.61"/>
<polygon fill="black" stroke="black" points="1122.46,-86.93 1132.31,-82.11 1126.24,-86.81 1132.46,-86.61 1132.46,-86.61 1132.46,-86.61 1126.24,-86.81 1132.6,-91.11 1122.46,-86.93"/>
</g>
<!-- app.api.routes.services&#45;&gt;app.models.user -->
<g id="edge20" class="edge">
<title>app.api.routes.services&#45;&gt;app.models.user</title>
<path fill="none" stroke="black" d="M1904.66,-36.46C1921.27,-45.16 1939.53,-57.05 1952.48,-72 1980.53,-104.38 1989.48,-118.16 1989.48,-161 1989.48,-161 1989.48,-161 1989.48,-307 1989.48,-349.84 1984.91,-368.01 1952.48,-396 1912.11,-430.84 1852.03,-443.34 1806.46,-447.57"/>
<polygon fill="black" stroke="black" points="1796.72,-448.35 1806.32,-443.06 1800.49,-448.05 1806.68,-447.55 1806.68,-447.55 1806.68,-447.55 1800.49,-448.05 1807.05,-452.03 1796.72,-448.35"/>
</g>
<!-- app.api.routes.services&#45;&gt;app.services -->
<g id="edge21" class="edge">
<title>app.api.routes.services&#45;&gt;app.services</title>
<path fill="none" stroke="black" d="M1841.66,-36.37C1813.77,-57.49 1763.12,-92.26 1713.48,-108 1598.16,-144.57 1231.16,-156.62 1093.4,-159.92"/>
<polygon fill="black" stroke="black" points="1083.56,-160.15 1093.45,-155.42 1087.34,-160.06 1093.55,-159.92 1093.55,-159.92 1093.55,-159.92 1087.34,-160.06 1093.66,-164.42 1083.56,-160.15"/>
</g>
<!-- app.api.routes.users -->
<g id="node13" class="node">
<title>app.api.routes.users</title>
<polygon fill="#99ddff" stroke="#99ddff" points="1430.48,-36 1306.48,-36 1306.48,0 1430.48,0 1430.48,-36"/>
<text xml:space="preserve" text-anchor="start" x="1314.48" y="-12.95" font-family="Times,serif" font-size="14.00">app.api.routes.users</text>
</g>
<!-- app.api.routes.users&#45;&gt;app.api.dependencies.deps -->
<g id="edge22" class="edge">
<title>app.api.routes.users&#45;&gt;app.api.dependencies.deps</title>
<path fill="none" stroke="black" d="M1306.17,-34.04C1303.23,-34.71 1300.32,-35.37 1297.48,-36 1242.7,-48.2 1181.14,-60.93 1132,-70.86"/>
<polygon fill="black" stroke="black" points="1122.26,-72.82 1131.18,-66.43 1125.97,-72.07 1132.07,-70.84 1132.07,-70.84 1132.07,-70.84 1125.97,-72.07 1132.95,-75.26 1122.26,-72.82"/>
</g>
<!-- app.api.routes.users&#45;&gt;app.models.user -->
<g id="edge23" class="edge">
<title>app.api.routes.users&#45;&gt;app.models.user</title>
<path fill="none" stroke="black" d="M1430.73,-22.09C1573.73,-30.89 1913.48,-62.18 1913.48,-161 1913.48,-161 1913.48,-161 1913.48,-307 1913.48,-347.97 1917.23,-365.86 1889.48,-396 1867.97,-419.36 1835.4,-432.44 1806.38,-439.75"/>
<polygon fill="black" stroke="black" points="1796.65,-442.01 1805.38,-435.37 1800.33,-441.16 1806.39,-439.75 1806.39,-439.75 1806.39,-439.75 1800.33,-441.16 1807.41,-444.14 1796.65,-442.01"/>
</g>
<!-- app.services.user_service -->
<g id="node38" class="node">
<title>app.services.user_service</title>
<polygon fill="#eedd88" stroke="#eedd88" points="801.48,-396 647.48,-396 647.48,-360 801.48,-360 801.48,-396"/>
<text xml:space="preserve" text-anchor="start" x="655.48" y="-372.95" font-family="Times,serif" font-size="14.00">app.services.user_service</text>
</g>
<!-- app.api.routes.users&#45;&gt;app.services.user_service -->
<g id="edge24" class="edge">
<title>app.api.routes.users&#45;&gt;app.services.user_service</title>
<path fill="none" stroke="black" d="M1325.77,-36.43C1278.31,-55.43 1199.16,-86.07 1129.48,-108 991.91,-151.3 927.18,-115.77 823.48,-216 785.31,-252.89 801.95,-279.85 772.48,-324 765.97,-333.76 757.72,-343.53 749.91,-351.98"/>
<polygon fill="black" stroke="black" points="743.16,-359.06 746.81,-348.72 745.77,-356.32 750.06,-351.82 750.06,-351.82 750.06,-351.82 745.77,-356.32 753.32,-354.93 743.16,-359.06"/>
</g>
<!-- app.app -->
<g id="node14" class="node">
<title>app.app</title>
<polygon fill="#77aadd" stroke="#77aadd" points="590.85,-324 532.1,-324 532.1,-288 590.85,-288 590.85,-324"/>
<text xml:space="preserve" text-anchor="start" x="540.1" y="-300.95" font-family="Times,serif" font-size="14.00">app.app</text>
</g>
<!-- app.app&#45;&gt;app.api.routes -->
<g id="edge25" class="edge">
<title>app.app&#45;&gt;app.api.routes</title>
<path fill="none" stroke="black" d="M566.92,-324.3C569.29,-331.85 572.13,-340.88 574.78,-349.32"/>
<polygon fill="black" stroke="black" points="577.74,-358.73 570.45,-350.54 576.6,-355.13 574.74,-349.19 574.74,-349.19 574.74,-349.19 576.6,-355.13 579.03,-347.84 577.74,-358.73"/>
</g>
<!-- app.core.config -->
<g id="node16" class="node">
<title>app.core.config</title>
<polygon fill="#44bb99" stroke="#44bb99" points="199.85,-540 99.1,-540 99.1,-504 199.85,-504 199.85,-540"/>
<text xml:space="preserve" text-anchor="start" x="107.1" y="-516.95" font-family="Times,serif" font-size="14.00">app.core.config</text>
</g>
<!-- app.app&#45;&gt;app.core.config -->
<g id="edge26" class="edge">
<title>app.app&#45;&gt;app.core.config</title>
<path fill="none" stroke="black" d="M532.03,-319.15C527.52,-320.86 522.9,-322.53 518.48,-324 460.36,-343.29 441.1,-334.39 385.48,-360 343.1,-379.51 235.57,-457.28 181.52,-497.16"/>
<polygon fill="black" stroke="black" points="173.68,-502.95 179.05,-493.39 176.72,-500.71 181.72,-497.01 181.72,-497.01 181.72,-497.01 176.72,-500.71 184.4,-500.63 173.68,-502.95"/>
</g>
<!-- app.db.base -->
<g id="node19" class="node">
<title>app.db.base</title>
<polygon fill="#bbcc33" stroke="#bbcc33" points="927.73,-540 847.23,-540 847.23,-504 927.73,-504 927.73,-540"/>
<text xml:space="preserve" text-anchor="start" x="855.23" y="-516.95" font-family="Times,serif" font-size="14.00">app.db.base</text>
</g>
<!-- app.app&#45;&gt;app.db.base -->
<g id="edge27" class="edge">
<title>app.app&#45;&gt;app.db.base</title>
<path fill="none" stroke="black" d="M531.91,-318.81C527.42,-320.57 522.83,-322.35 518.48,-324 474.7,-340.61 452.75,-327.06 419.48,-360 384.32,-394.81 359.41,-431.2 392.48,-468 421.75,-500.58 715.04,-514.79 835.87,-519.3"/>
<polygon fill="black" stroke="black" points="845.79,-519.66 835.63,-523.8 842.01,-519.53 835.8,-519.3 835.8,-519.3 835.8,-519.3 842.01,-519.53 835.96,-514.8 845.79,-519.66"/>
</g>
<!-- app.app&#45;&gt;app.db.session -->
<g id="edge28" class="edge">
<title>app.app&#45;&gt;app.db.session</title>
<path fill="none" stroke="black" d="M531.66,-319.65C527.29,-321.25 522.8,-322.76 518.48,-324 432.91,-348.48 408.26,-340.21 321.48,-360 320.34,-360.26 319.18,-360.53 318.02,-360.8"/>
<polygon fill="black" stroke="black" points="308.62,-363.12 317.26,-356.36 312.29,-362.21 318.33,-360.73 318.33,-360.73 318.33,-360.73 312.29,-362.21 319.41,-365.1 308.62,-363.12"/>
</g>
<!-- app.models -->
<g id="node21" class="node">
<title>app.models</title>
<polygon fill="#aaaa00" stroke="#aaaa00" points="518.98,-396 439.98,-396 439.98,-360 518.98,-360 518.98,-396"/>
<text xml:space="preserve" text-anchor="start" x="447.98" y="-372.95" font-family="Times,serif" font-size="14.00">app.models</text>
</g>
<!-- app.app&#45;&gt;app.models -->
<g id="edge29" class="edge">
<title>app.app&#45;&gt;app.models</title>
<path fill="none" stroke="black" d="M541.21,-324.3C531.25,-332.8 519.09,-343.19 508.19,-352.49"/>
<polygon fill="black" stroke="black" points="500.73,-358.86 505.41,-348.95 503.6,-356.41 508.33,-352.37 508.33,-352.37 508.33,-352.37 503.6,-356.41 511.25,-355.79 500.73,-358.86"/>
</g>
<!-- app.core -->
<g id="node15" class="node">
<title>app.core</title>
<polygon fill="#44bb99" stroke="#44bb99" points="2137.73,-36 2075.23,-36 2075.23,0 2137.73,0 2137.73,-36"/>
<text xml:space="preserve" text-anchor="start" x="2083.23" y="-12.95" font-family="Times,serif" font-size="14.00">app.core</text>
</g>
<!-- app.core.security -->
<g id="node17" class="node">
<title>app.core.security</title>
<polygon fill="#44bb99" stroke="#44bb99" points="510.98,-468 401.98,-468 401.98,-432 510.98,-432 510.98,-468"/>
<text xml:space="preserve" text-anchor="start" x="409.98" y="-444.95" font-family="Times,serif" font-size="14.00">app.core.security</text>
</g>
<!-- app.core.security&#45;&gt;app.core.config -->
<g id="edge30" class="edge">
<title>app.core.security&#45;&gt;app.core.config</title>
<path fill="none" stroke="black" d="M401.59,-463.51C348.07,-475.72 266.82,-494.24 211.11,-506.95"/>
<polygon fill="black" stroke="black" points="201.51,-509.14 210.26,-502.53 205.2,-508.3 211.26,-506.91 211.26,-506.91 211.26,-506.91 205.2,-508.3 212.26,-511.3 201.51,-509.14"/>
</g>
<!-- app.db -->
<g id="node18" class="node">
<title>app.db</title>
<polygon fill="#bbcc33" stroke="#bbcc33" points="2209.48,-36 2155.48,-36 2155.48,0 2209.48,0 2209.48,-36"/>
<text xml:space="preserve" text-anchor="start" x="2164.1" y="-12.95" font-family="Times,serif" font-size="14.00">app.db</text>
</g>
<!-- app.db.session&#45;&gt;app.core.config -->
<g id="edge31" class="edge">
<title>app.db.session&#45;&gt;app.core.config</title>
<path fill="none" stroke="black" d="M245.99,-396.41C226.84,-421.14 191.62,-466.59 169.44,-495.23"/>
<polygon fill="black" stroke="black" points="163.48,-502.93 166.05,-492.26 165.8,-499.94 169.6,-495.02 169.6,-495.02 169.6,-495.02 165.8,-499.94 173.16,-497.78 163.48,-502.93"/>
</g>
<!-- app.models.access -->
<g id="node22" class="node">
<title>app.models.access</title>
<polygon fill="#aaaa00" stroke="#aaaa00" points="797.1,-468 679.85,-468 679.85,-432 797.1,-432 797.1,-468"/>
<text xml:space="preserve" text-anchor="start" x="687.85" y="-444.95" font-family="Times,serif" font-size="14.00">app.models.access</text>
</g>
<!-- app.models&#45;&gt;app.models.access -->
<g id="edge32" class="edge">
<title>app.models&#45;&gt;app.models.access</title>
<path fill="none" stroke="black" d="M519.23,-393.11C522.35,-394.12 525.46,-395.1 528.48,-396 535.43,-398.08 610.38,-416.93 668.78,-431.56"/>
<polygon fill="black" stroke="black" points="678.29,-433.94 667.49,-435.88 674.62,-433.03 668.59,-431.51 668.59,-431.51 668.59,-431.51 674.62,-433.03 669.68,-427.15 678.29,-433.94"/>
</g>
<!-- app.models.appointment -->
<g id="node23" class="node">
<title>app.models.appointment</title>
<polygon fill="#aaaa00" stroke="#aaaa00" points="1354.98,-468 1203.98,-468 1203.98,-432 1354.98,-432 1354.98,-468"/>
<text xml:space="preserve" text-anchor="start" x="1211.98" y="-444.95" font-family="Times,serif" font-size="14.00">app.models.appointment</text>
</g>
<!-- app.models&#45;&gt;app.models.appointment -->
<g id="edge33" class="edge">
<title>app.models&#45;&gt;app.models.appointment</title>
<path fill="none" stroke="black" d="M519.34,-393.82C522.41,-394.66 525.48,-395.4 528.48,-396 781.71,-446.8 851.04,-411.22 1108.48,-432 1135.92,-434.22 1165.8,-437.04 1192.79,-439.75"/>
<polygon fill="black" stroke="black" points="1202.56,-440.74 1192.16,-444.21 1198.8,-440.36 1192.61,-439.73 1192.61,-439.73 1192.61,-439.73 1198.8,-440.36 1193.06,-435.26 1202.56,-440.74"/>
</g>
<!-- app.models.notification -->
<g id="node24" class="node">
<title>app.models.notification</title>
<polygon fill="#aaaa00" stroke="#aaaa00" points="959.98,-468 814.98,-468 814.98,-432 959.98,-432 959.98,-468"/>
<text xml:space="preserve" text-anchor="start" x="822.98" y="-444.95" font-family="Times,serif" font-size="14.00">app.models.notification</text>
</g>
<!-- app.models&#45;&gt;app.models.notification -->
<g id="edge34" class="edge">
<title>app.models&#45;&gt;app.models.notification</title>
<path fill="none" stroke="black" d="M519.39,-393.6C522.45,-394.48 525.5,-395.3 528.48,-396 646.31,-423.76 681.65,-411.91 803.77,-431.63"/>
<polygon fill="black" stroke="black" points="813.47,-433.24 802.87,-436.05 809.74,-432.62 803.6,-431.61 803.6,-431.61 803.6,-431.61 809.74,-432.62 804.34,-427.17 813.47,-433.24"/>
</g>
<!-- app.models.reminder -->
<g id="node25" class="node">
<title>app.models.reminder</title>
<polygon fill="#aaaa00" stroke="#aaaa00" points="661.6,-468 529.35,-468 529.35,-432 661.6,-432 661.6,-468"/>
<text xml:space="preserve" text-anchor="start" x="537.35" y="-444.95" font-family="Times,serif" font-size="14.00">app.models.reminder</text>
</g>
<!-- app.models&#45;&gt;app.models.reminder -->
<g id="edge35" class="edge">
<title>app.models&#45;&gt;app.models.reminder</title>
<path fill="none" stroke="black" d="M508.45,-396.48C523.23,-405.4 541.4,-416.37 557.31,-425.97"/>
<polygon fill="black" stroke="black" points="565.83,-431.11 554.94,-429.8 562.59,-429.16 557.27,-425.94 557.27,-425.94 557.27,-425.94 562.59,-429.16 559.59,-422.09 565.83,-431.11"/>
</g>
<!-- app.models.service -->
<g id="node26" class="node">
<title>app.models.service</title>
<polygon fill="#aaaa00" stroke="#aaaa00" points="1098.98,-468 977.98,-468 977.98,-432 1098.98,-432 1098.98,-468"/>
<text xml:space="preserve" text-anchor="start" x="985.98" y="-444.95" font-family="Times,serif" font-size="14.00">app.models.service</text>
</g>
<!-- app.models&#45;&gt;app.models.service -->
<g id="edge36" class="edge">
<title>app.models&#45;&gt;app.models.service</title>
<path fill="none" stroke="black" d="M519.36,-393.76C522.42,-394.61 525.48,-395.37 528.48,-396 717.43,-435.82 773.37,-401.66 966.82,-431.72"/>
<polygon fill="black" stroke="black" points="976.43,-433.26 965.85,-436.13 972.7,-432.66 966.56,-431.68 966.56,-431.68 966.56,-431.68 972.7,-432.66 967.26,-427.24 976.43,-433.26"/>
</g>
<!-- app.models&#45;&gt;app.models.user -->
<g id="edge37" class="edge">
<title>app.models&#45;&gt;app.models.user</title>
<path fill="none" stroke="black" d="M519.33,-393.89C522.4,-394.71 525.47,-395.43 528.48,-396 711.13,-430.84 1178.71,-423.82 1364.48,-432 1474.81,-436.86 1603.25,-442.67 1678.43,-446.08"/>
<polygon fill="black" stroke="black" points="1688.36,-446.53 1678.17,-450.57 1684.59,-446.36 1678.37,-446.08 1678.37,-446.08 1678.37,-446.08 1684.59,-446.36 1678.58,-441.58 1688.36,-446.53"/>
</g>
<!-- app.models.access&#45;&gt;app.db.base -->
<g id="edge38" class="edge">
<title>app.models.access&#45;&gt;app.db.base</title>
<path fill="none" stroke="black" d="M775.69,-468.48C795.32,-477.71 819.61,-489.11 840.52,-498.94"/>
<polygon fill="black" stroke="black" points="849.38,-503.1 838.41,-502.92 845.95,-501.49 840.33,-498.85 840.33,-498.85 840.33,-498.85 845.95,-501.49 842.24,-494.78 849.38,-503.1"/>
</g>
<!-- app.models.appointment&#45;&gt;app.db.base -->
<g id="edge39" class="edge">
<title>app.models.appointment&#45;&gt;app.db.base</title>
<path fill="none" stroke="black" d="M1203.9,-464.5C1125.92,-478.42 1006.43,-499.76 938.8,-511.84"/>
<polygon fill="black" stroke="black" points="929.2,-513.55 938.25,-507.36 932.92,-512.89 939.04,-511.79 939.04,-511.79 939.04,-511.79 932.92,-512.89 939.83,-516.22 929.2,-513.55"/>
</g>
<!-- app.models.notification&#45;&gt;app.db.base -->
<g id="edge40" class="edge">
<title>app.models.notification&#45;&gt;app.db.base</title>
<path fill="none" stroke="black" d="M887.48,-468.3C887.48,-475.68 887.48,-484.48 887.48,-492.75"/>
<polygon fill="black" stroke="black" points="887.48,-502.68 882.98,-492.68 887.48,-498.9 887.48,-492.68 887.48,-492.68 887.48,-492.68 887.48,-498.9 891.98,-492.68 887.48,-502.68"/>
</g>
<!-- app.models.reminder&#45;&gt;app.db.base -->
<g id="edge41" class="edge">
<title>app.models.reminder&#45;&gt;app.db.base</title>
<path fill="none" stroke="black" d="M662.1,-466.97C714.88,-479.62 787.55,-497.04 835.95,-508.65"/>
<polygon fill="black" stroke="black" points="845.61,-510.96 834.84,-513.01 841.93,-510.08 835.88,-508.63 835.88,-508.63 835.88,-508.63 841.93,-510.08 836.93,-504.26 845.61,-510.96"/>
</g>
<!-- app.models.service&#45;&gt;app.db.base -->
<g id="edge42" class="edge">
<title>app.models.service&#45;&gt;app.db.base</title>
<path fill="none" stroke="black" d="M1000.76,-468.48C980.87,-477.71 956.26,-489.11 935.07,-498.94"/>
<polygon fill="black" stroke="black" points="926.08,-503.11 933.26,-494.82 929.51,-501.52 935.15,-498.9 935.15,-498.9 935.15,-498.9 929.51,-501.52 937.04,-502.98 926.08,-503.11"/>
</g>
<!-- app.models.user&#45;&gt;app.db.base -->
<g id="edge43" class="edge">
<title>app.models.user&#45;&gt;app.db.base</title>
<path fill="none" stroke="black" d="M1689.64,-455.33C1536.02,-467.9 1090.81,-504.35 938.94,-516.79"/>
<polygon fill="black" stroke="black" points="929.32,-517.57 938.92,-512.27 933.09,-517.27 939.28,-516.76 939.28,-516.76 939.28,-516.76 933.09,-517.27 939.65,-521.24 929.32,-517.57"/>
</g>
<!-- app.services.appointment_service -->
<g id="node29" class="node">
<title>app.services.appointment_service</title>
<polygon fill="#eedd88" stroke="#eedd88" points="1283.35,-252 1083.6,-252 1083.6,-216 1283.35,-216 1283.35,-252"/>
<text xml:space="preserve" text-anchor="start" x="1091.6" y="-228.95" font-family="Times,serif" font-size="14.00">app.services.appointment_service</text>
</g>
<!-- app.services&#45;&gt;app.services.appointment_service -->
<g id="edge44" class="edge">
<title>app.services&#45;&gt;app.services.appointment_service</title>
<path fill="none" stroke="black" d="M1076.19,-180.48C1095.02,-189.7 1118.3,-201.1 1138.36,-210.92"/>
<polygon fill="black" stroke="black" points="1147.12,-215.2 1136.16,-214.85 1143.73,-213.54 1138.14,-210.81 1138.14,-210.81 1138.14,-210.81 1143.73,-213.54 1140.12,-206.77 1147.12,-215.2"/>
</g>
<!-- app.services&#45;&gt;app.services.auth_service -->
<g id="edge45" class="edge">
<title>app.services&#45;&gt;app.services.auth_service</title>
<path fill="none" stroke="black" d="M998.76,-168.09C952.44,-174.8 876.19,-189.06 815.48,-216 778.04,-232.61 740.04,-260.45 715.07,-280.58"/>
<polygon fill="black" stroke="black" points="707.43,-286.84 712.31,-277.02 710.35,-284.44 715.16,-280.5 715.16,-280.5 715.16,-280.5 710.35,-284.44 718.02,-283.98 707.43,-286.84"/>
</g>
<!-- app.services&#45;&gt;app.services.notification_service -->
<g id="edge46" class="edge">
<title>app.services&#45;&gt;app.services.notification_service</title>
<path fill="none" stroke="black" d="M1042.88,-180.39C1044.7,-198.83 1045.57,-228.48 1036.48,-252 1032.61,-261.99 1026.07,-271.48 1019.19,-279.6"/>
<polygon fill="black" stroke="black" points="1012.52,-286.92 1015.92,-276.5 1015.07,-284.13 1019.25,-279.53 1019.25,-279.53 1019.25,-279.53 1015.07,-284.13 1022.58,-282.56 1012.52,-286.92"/>
</g>
<!-- app.services.role_service -->
<g id="node36" class="node">
<title>app.services.role_service</title>
<polygon fill="#eedd88" stroke="#eedd88" points="1541.73,-252 1389.23,-252 1389.23,-216 1541.73,-216 1541.73,-252"/>
<text xml:space="preserve" text-anchor="start" x="1397.23" y="-228.95" font-family="Times,serif" font-size="14.00">app.services.role_service</text>
</g>
<!-- app.services&#45;&gt;app.services.role_service -->
<g id="edge47" class="edge">
<title>app.services&#45;&gt;app.services.role_service</title>
<path fill="none" stroke="black" d="M1082,-169.84C1150.18,-181.07 1287.27,-203.65 1377.7,-218.54"/>
<polygon fill="black" stroke="black" points="1387.57,-220.17 1376.97,-222.98 1383.83,-219.55 1377.7,-218.54 1377.7,-218.54 1377.7,-218.54 1383.83,-219.55 1378.43,-214.1 1387.57,-220.17"/>
</g>
<!-- app.services.service_service -->
<g id="node37" class="node">
<title>app.services.service_service</title>
<polygon fill="#eedd88" stroke="#eedd88" points="1027.35,-252 857.6,-252 857.6,-216 1027.35,-216 1027.35,-252"/>
<text xml:space="preserve" text-anchor="start" x="865.6" y="-228.95" font-family="Times,serif" font-size="14.00">app.services.service_service</text>
</g>
<!-- app.services&#45;&gt;app.services.service_service -->
<g id="edge48" class="edge">
<title>app.services&#45;&gt;app.services.service_service</title>
<path fill="none" stroke="black" d="M1016,-180.48C1003.75,-189.24 988.74,-199.96 975.48,-209.42"/>
<polygon fill="black" stroke="black" points="967.63,-215.03 973.16,-205.56 970.71,-212.83 975.77,-209.22 975.77,-209.22 975.77,-209.22 970.71,-212.83 978.39,-212.88 967.63,-215.03"/>
</g>
<!-- app.services&#45;&gt;app.services.user_service -->
<g id="edge49" class="edge">
<title>app.services&#45;&gt;app.services.user_service</title>
<path fill="none" stroke="black" d="M998.75,-170.04C949.23,-179.15 870.56,-196.21 848.48,-216 810,-250.48 838.17,-283.99 805.48,-324 795.9,-335.72 783.04,-345.75 770.39,-353.83"/>
<polygon fill="black" stroke="black" points="761.86,-359 768.08,-349.97 765.09,-357.04 770.41,-353.82 770.41,-353.82 770.41,-353.82 765.09,-357.04 772.74,-357.67 761.86,-359"/>
</g>
<!-- app.services.appointment_service&#45;&gt;app.models.appointment -->
<g id="edge50" class="edge">
<title>app.services.appointment_service&#45;&gt;app.models.appointment</title>
<path fill="none" stroke="black" d="M1229.76,-252.33C1273.19,-271.38 1335.53,-306.56 1363.48,-360 1370.89,-374.18 1371.2,-381.99 1363.48,-396 1356.71,-408.27 1345.77,-418.09 1334,-425.78"/>
<polygon fill="black" stroke="black" points="1325.48,-430.88 1331.76,-421.88 1328.73,-428.94 1334.06,-425.74 1334.06,-425.74 1334.06,-425.74 1328.73,-428.94 1336.37,-429.61 1325.48,-430.88"/>
</g>
<!-- app.services.appointment_service&#45;&gt;app.models.service -->
<g id="edge51" class="edge">
<title>app.services.appointment_service&#45;&gt;app.models.service</title>
<path fill="none" stroke="black" d="M1171.47,-252.49C1156.65,-272.73 1129.57,-305.63 1098.48,-324 1044.64,-355.8 1000.62,-310.45 962.48,-360 952.72,-372.68 955.08,-381.81 962.48,-396 968.7,-407.92 978.96,-417.71 989.96,-425.48"/>
<polygon fill="black" stroke="black" points="998.28,-430.88 987.44,-429.21 995.11,-428.82 989.89,-425.44 989.89,-425.44 989.89,-425.44 995.11,-428.82 992.34,-421.66 998.28,-430.88"/>
</g>
<!-- app.services.appointment_service&#45;&gt;app.models.user -->
<g id="edge52" class="edge">
<title>app.services.appointment_service&#45;&gt;app.models.user</title>
<path fill="none" stroke="black" d="M1283.59,-249.19C1414.34,-269.41 1634.07,-309.7 1697.48,-360 1716.84,-375.36 1728.61,-401.27 1735.22,-421.19"/>
<polygon fill="black" stroke="black" points="1738.11,-430.64 1730.89,-422.39 1737,-427.03 1735.19,-421.08 1735.19,-421.08 1735.19,-421.08 1737,-427.03 1739.49,-419.77 1738.11,-430.64"/>
</g>
<!-- app.services.appointment_service&#45;&gt;app.services.notification_service -->
<g id="edge53" class="edge">
<title>app.services.appointment_service&#45;&gt;app.services.notification_service</title>
<path fill="none" stroke="black" d="M1135.77,-252.48C1109.81,-262 1077.5,-273.84 1050.13,-283.87"/>
<polygon fill="black" stroke="black" points="1041.05,-287.2 1048.89,-279.53 1044.6,-285.9 1050.44,-283.76 1050.44,-283.76 1050.44,-283.76 1044.6,-285.9 1051.99,-287.98 1041.05,-287.2"/>
</g>
<!-- app.services.auth_service&#45;&gt;app.core.config -->
<g id="edge54" class="edge">
<title>app.services.auth_service&#45;&gt;app.core.config</title>
<path fill="none" stroke="black" d="M608.77,-322.71C605.64,-323.17 602.53,-323.61 599.48,-324 535.77,-332.18 66.46,-313.19 22.48,-360 -20.78,-406.04 56.96,-465.61 108.73,-497.83"/>
<polygon fill="black" stroke="black" points="117.02,-502.89 106.14,-501.53 113.79,-500.92 108.48,-497.68 108.48,-497.68 108.48,-497.68 113.79,-500.92 110.83,-493.84 117.02,-502.89"/>
</g>
<!-- app.services.auth_service&#45;&gt;app.core.security -->
<g id="edge55" class="edge">
<title>app.services.auth_service&#45;&gt;app.core.security</title>
<path fill="none" stroke="black" d="M608.87,-322.47C534.06,-337.47 431.93,-358.22 430.48,-360 416.02,-377.75 425.65,-403.25 437.07,-422.4"/>
<polygon fill="black" stroke="black" points="442.42,-430.74 433.23,-424.76 440.38,-427.56 437.02,-422.33 437.02,-422.33 437.02,-422.33 440.38,-427.56 440.81,-419.9 442.42,-430.74"/>
</g>
<!-- app.services.auth_service&#45;&gt;app.models.user -->
<g id="edge56" class="edge">
<title>app.services.auth_service&#45;&gt;app.models.user</title>
<path fill="none" stroke="black" d="M764.31,-314.28C801.3,-317.57 846.14,-321.31 886.48,-324 968.84,-329.5 1553.75,-324.94 1628.48,-360 1648.13,-369.22 1644.94,-381.95 1661.48,-396 1674.17,-406.78 1689.18,-417.16 1702.81,-425.83"/>
<polygon fill="black" stroke="black" points="1710.94,-430.9 1700.08,-429.43 1707.73,-428.9 1702.46,-425.61 1702.46,-425.61 1702.46,-425.61 1707.73,-428.9 1704.84,-421.79 1710.94,-430.9"/>
</g>
<!-- app.services.auth_service&#45;&gt;app.services.user_service -->
<g id="edge57" class="edge">
<title>app.services.auth_service&#45;&gt;app.services.user_service</title>
<path fill="none" stroke="black" d="M695.87,-324.3C700.11,-332.1 705.2,-341.49 709.91,-350.17"/>
<polygon fill="black" stroke="black" points="714.61,-358.82 705.89,-352.18 712.81,-355.5 709.84,-350.04 709.84,-350.04 709.84,-350.04 712.81,-355.5 713.8,-347.89 714.61,-358.82"/>
</g>
<!-- app.services.availability_service -->
<g id="node31" class="node">
<title>app.services.availability_service</title>
<polygon fill="#eedd88" stroke="#eedd88" points="1163.6,-396 971.35,-396 971.35,-360 1163.6,-360 1163.6,-396"/>
<text xml:space="preserve" text-anchor="start" x="979.35" y="-372.95" font-family="Times,serif" font-size="14.00">app.services.availability_service</text>
</g>
<!-- app.services.availability_service&#45;&gt;app.models.appointment -->
<g id="edge58" class="edge">
<title>app.services.availability_service&#45;&gt;app.models.appointment</title>
<path fill="none" stroke="black" d="M1120.43,-396.48C1149.5,-406.08 1185.75,-418.05 1216.29,-428.14"/>
<polygon fill="black" stroke="black" points="1225.68,-431.24 1214.77,-432.37 1222.09,-430.05 1216.18,-428.1 1216.18,-428.1 1216.18,-428.1 1222.09,-430.05 1217.59,-423.83 1225.68,-431.24"/>
</g>
<!-- app.services.availability_service&#45;&gt;app.models.service -->
<g id="edge59" class="edge">
<title>app.services.availability_service&#45;&gt;app.models.service</title>
<path fill="none" stroke="black" d="M1060.31,-396.3C1057.15,-403.93 1053.36,-413.08 1049.83,-421.6"/>
<polygon fill="black" stroke="black" points="1046.03,-430.77 1045.7,-419.81 1047.48,-427.28 1049.86,-421.53 1049.86,-421.53 1049.86,-421.53 1047.48,-427.28 1054.02,-423.25 1046.03,-430.77"/>
</g>
<!-- app.services.dashboard_service&#45;&gt;app.models.appointment -->
<g id="edge60" class="edge">
<title>app.services.dashboard_service&#45;&gt;app.models.appointment</title>
<path fill="none" stroke="black" d="M1464.04,-396.48C1429.71,-406.25 1386.77,-418.47 1350.95,-428.66"/>
<polygon fill="black" stroke="black" points="1341.73,-431.28 1350.12,-424.22 1345.37,-430.25 1351.35,-428.55 1351.35,-428.55 1351.35,-428.55 1345.37,-430.25 1352.58,-432.88 1341.73,-431.28"/>
</g>
<!-- app.services.dashboard_service&#45;&gt;app.models.service -->
<g id="edge61" class="edge">
<title>app.services.dashboard_service&#45;&gt;app.models.service</title>
<path fill="none" stroke="black" d="M1431.58,-392.5C1337.71,-405.99 1195.41,-426.44 1110.23,-438.69"/>
<polygon fill="black" stroke="black" points="1100.58,-440.07 1109.84,-434.2 1104.32,-439.54 1110.48,-438.65 1110.48,-438.65 1110.48,-438.65 1104.32,-439.54 1111.12,-443.11 1100.58,-440.07"/>
</g>
<!-- app.services.dashboard_service&#45;&gt;app.models.user -->
<g id="edge62" class="edge">
<title>app.services.dashboard_service&#45;&gt;app.models.user</title>
<path fill="none" stroke="black" d="M1579.68,-396.48C1609.9,-406.23 1647.71,-418.43 1679.27,-428.61"/>
<polygon fill="black" stroke="black" points="1688.56,-431.61 1677.66,-432.82 1684.96,-430.45 1679.04,-428.54 1679.04,-428.54 1679.04,-428.54 1684.96,-430.45 1680.42,-424.25 1688.56,-431.61"/>
</g>
<!-- app.services.email_service&#45;&gt;app.core.config -->
<g id="edge63" class="edge">
<title>app.services.email_service&#45;&gt;app.core.config</title>
<path fill="none" stroke="black" d="M117.02,-396.41C123.32,-420.6 134.79,-464.64 142.27,-493.35"/>
<polygon fill="black" stroke="black" points="144.71,-502.71 137.84,-494.17 143.76,-499.05 142.19,-493.03 142.19,-493.03 142.19,-493.03 143.76,-499.05 146.55,-491.9 144.71,-502.71"/>
</g>
<!-- app.services.notification_service&#45;&gt;app.models.appointment -->
<g id="edge64" class="edge">
<title>app.services.notification_service&#45;&gt;app.models.appointment</title>
<path fill="none" stroke="black" d="M1089.49,-307.84C1182.64,-310.94 1313.88,-322.16 1346.48,-360 1356.92,-372.12 1353.45,-381.6 1346.48,-396 1340.93,-407.46 1331.57,-417.2 1321.58,-425.07"/>
<polygon fill="black" stroke="black" points="1313.7,-430.8 1319.14,-421.28 1316.76,-428.57 1321.79,-424.92 1321.79,-424.92 1321.79,-424.92 1316.76,-428.57 1324.43,-428.56 1313.7,-430.8"/>
</g>
<!-- app.services.notification_service&#45;&gt;app.models.notification -->
<g id="edge65" class="edge">
<title>app.services.notification_service&#45;&gt;app.models.notification</title>
<path fill="none" stroke="black" d="M960.28,-324.41C946.12,-333.44 930.29,-345.6 919.48,-360 905.93,-378.05 897.7,-402.38 892.99,-421.04"/>
<polygon fill="black" stroke="black" points="890.77,-430.63 888.64,-419.87 891.62,-426.95 893.03,-420.89 893.03,-420.89 893.03,-420.89 891.62,-426.95 897.41,-421.9 890.77,-430.63"/>
</g>
<!-- app.services.notification_service&#45;&gt;app.models.service -->
<g id="edge66" class="edge">
<title>app.services.notification_service&#45;&gt;app.models.service</title>
<path fill="none" stroke="black" d="M961.85,-324.43C949.37,-333.32 936.29,-345.36 929.48,-360 922.73,-374.51 920.99,-382.44 929.48,-396 938.45,-410.34 952.54,-420.9 967.64,-428.64"/>
<polygon fill="black" stroke="black" points="976.56,-432.81 965.6,-432.65 973.14,-431.21 967.51,-428.58 967.51,-428.58 967.51,-428.58 973.14,-431.21 969.41,-424.5 976.56,-432.81"/>
</g>
<!-- app.services.notification_service&#45;&gt;app.models.user -->
<g id="edge67" class="edge">
<title>app.services.notification_service&#45;&gt;app.models.user</title>
<path fill="none" stroke="black" d="M1089.8,-306.03C1250.53,-305.85 1563.46,-311.96 1661.48,-360 1689.33,-373.65 1712.13,-401.41 1726.36,-422.32"/>
<polygon fill="black" stroke="black" points="1731.79,-430.63 1722.56,-424.72 1729.72,-427.47 1726.32,-422.26 1726.32,-422.26 1726.32,-422.26 1729.72,-427.47 1730.09,-419.8 1731.79,-430.63"/>
</g>
<!-- app.services.notification_service&#45;&gt;app.services.email_service -->
<g id="edge68" class="edge">
<title>app.services.notification_service&#45;&gt;app.services.email_service</title>
<path fill="none" stroke="black" d="M895.3,-314.8C857.03,-317.8 812.7,-321.18 772.48,-324 522.85,-341.53 456.22,-328.76 204.79,-359.8"/>
<polygon fill="black" stroke="black" points="195.05,-361.01 204.42,-355.31 198.8,-360.55 204.97,-359.78 204.97,-359.78 204.97,-359.78 198.8,-360.55 205.53,-364.24 195.05,-361.01"/>
</g>
<!-- app.services.notification_service&#45;&gt;app.services.user_service -->
<g id="edge69" class="edge">
<title>app.services.notification_service&#45;&gt;app.services.user_service</title>
<path fill="none" stroke="black" d="M925.54,-324.48C887.99,-334.29 840.96,-346.57 801.84,-356.79"/>
<polygon fill="black" stroke="black" points="792.2,-359.31 800.74,-352.43 795.86,-358.35 801.88,-356.78 801.88,-356.78 801.88,-356.78 795.86,-358.35 803.02,-361.14 792.2,-359.31"/>
</g>
<!-- app.utils.email_templates -->
<g id="node40" class="node">
<title>app.utils.email_templates</title>
<polygon fill="#ee8866" stroke="#ee8866" points="1337.6,-396 1181.35,-396 1181.35,-360 1337.6,-360 1337.6,-396"/>
<text xml:space="preserve" text-anchor="start" x="1189.35" y="-372.95" font-family="Times,serif" font-size="14.00">app.utils.email_templates</text>
</g>
<!-- app.services.notification_service&#45;&gt;app.utils.email_templates -->
<g id="edge70" class="edge">
<title>app.services.notification_service&#45;&gt;app.utils.email_templates</title>
<path fill="none" stroke="black" d="M1059.16,-324.48C1096.58,-334.29 1143.43,-346.57 1182.41,-356.79"/>
<polygon fill="black" stroke="black" points="1192,-359.31 1181.19,-361.13 1188.34,-358.35 1182.33,-356.77 1182.33,-356.77 1182.33,-356.77 1188.34,-358.35 1183.47,-352.42 1192,-359.31"/>
</g>
<!-- app.services.payment_service&#45;&gt;app.core.config -->
<g id="edge71" class="edge">
<title>app.services.payment_service&#45;&gt;app.core.config</title>
<path fill="none" stroke="black" d="M531.69,-178.47C376.42,-207.24 68.29,-273.96 5.48,-360 -12.26,-384.3 19.6,-461.28 25.48,-468 41.78,-486.63 65.78,-498.91 88.33,-506.91"/>
<polygon fill="black" stroke="black" points="97.74,-510.02 86.83,-511.16 94.15,-508.83 88.24,-506.89 88.24,-506.89 88.24,-506.89 94.15,-508.83 89.65,-502.61 97.74,-510.02"/>
</g>
<!-- app.services.role_service&#45;&gt;app.models.user -->
<g id="edge72" class="edge">
<title>app.services.role_service&#45;&gt;app.models.user</title>
<path fill="none" stroke="black" d="M1542.16,-236.33C1591.52,-240.78 1654.6,-253.6 1699.48,-288 1739.78,-318.89 1745.03,-383.1 1744.35,-420.42"/>
<polygon fill="black" stroke="black" points="1744,-430.3 1739.86,-420.15 1744.14,-426.52 1744.36,-420.3 1744.36,-420.3 1744.36,-420.3 1744.14,-426.52 1748.85,-420.46 1744,-430.3"/>
</g>
<!-- app.services.service_service&#45;&gt;app.models.service -->
<g id="edge73" class="edge">
<title>app.services.service_service&#45;&gt;app.models.service</title>
<path fill="none" stroke="black" d="M916.06,-252.42C904.69,-261.52 892.62,-273.74 886.48,-288 880.15,-302.7 883.07,-308.37 886.48,-324 893.98,-358.39 894.45,-371.24 919.48,-396 932.92,-409.3 950.27,-419.56 967.54,-427.35"/>
<polygon fill="black" stroke="black" points="976.56,-431.19 965.59,-431.41 973.08,-429.71 967.35,-427.27 967.35,-427.27 967.35,-427.27 973.08,-429.71 969.11,-423.13 976.56,-431.19"/>
</g>
<!-- app.services.user_service&#45;&gt;app.core.security -->
<g id="edge74" class="edge">
<title>app.services.user_service&#45;&gt;app.core.security</title>
<path fill="none" stroke="black" d="M656.92,-396.45C619.82,-406.06 572.71,-418.3 522.13,-431.57"/>
<polygon fill="black" stroke="black" points="512.46,-434.11 520.99,-427.22 516.12,-433.15 522.14,-431.57 522.14,-431.57 522.14,-431.57 516.12,-433.15 523.28,-435.92 512.46,-434.11"/>
</g>
<!-- app.services.user_service&#45;&gt;app.models.user -->
<g id="edge75" class="edge">
<title>app.services.user_service&#45;&gt;app.models.user</title>
<path fill="none" stroke="black" d="M801.92,-384.6C848.45,-387.95 908.86,-392.26 962.48,-396 1228.24,-414.52 1545,-435.8 1678.33,-444.72"/>
<polygon fill="black" stroke="black" points="1688.3,-445.38 1678.02,-449.21 1684.52,-445.13 1678.32,-444.72 1678.32,-444.72 1678.32,-444.72 1684.52,-445.13 1678.62,-440.23 1688.3,-445.38"/>
</g>
<!-- app.utils -->
<g id="node39" class="node">
<title>app.utils</title>
<polygon fill="#ee8866" stroke="#ee8866" points="2289.73,-36 2227.23,-36 2227.23,0 2289.73,0 2289.73,-36"/>
<text xml:space="preserve" text-anchor="start" x="2235.23" y="-12.95" font-family="Times,serif" font-size="14.00">app.utils</text>
</g>
</g>
</svg>
